<?xml version="1.0" standalone="no"?><!DOCTYPE svg PUBLIC "-//W3C//DTD SVG 1.1//EN" "http://www.w3.org/Graphics/SVG/1.1/DTD/svg11.dtd"><svg t="1755348550564" class="icon" viewBox="0 0 1126 1024" version="1.1" xmlns="http://www.w3.org/2000/svg" p-id="1173" xmlns:xlink="http://www.w3.org/1999/xlink" width="52.78125" height="48"><path d="M505.5488 23.9104l-447.5904 376.32a85.0432 85.0432 0 0 0 54.784 150.1696h76.8l3.7376 0.256c4.096 0.512 9.0112 6.0416 9.0112 12.544v326.144a122.2144 122.2144 0 0 0 122.0096 121.856h95.5904A89.6 89.6 0 0 0 509.4912 921.6v-179.2c0-31.3856 17.92-53.76 35.328-53.76h36.864c17.408 0 35.328 22.3744 35.328 53.76V921.6c0 49.4592 40.0896 89.6 89.6 89.6h95.5392a121.9584 121.9584 0 0 0 122.0608-121.856V563.2a12.8 12.8 0 0 1 12.8-12.8h76.8a85.0432 85.0432 0 0 0 54.6816-150.1696L620.8512 23.9104a89.6 89.6 0 0 0-115.3024 0z m65.8944 58.7776l447.6416 376.32a8.2432 8.2432 0 0 1-5.2736 14.592h-76.8A89.6 89.6 0 0 0 847.36 563.2v326.144c0 24.832-20.2752 45.056-45.2608 45.056H706.56a12.8 12.8 0 0 1-12.8-12.8v-179.2c0-70.5024-48.128-130.56-112.128-130.56h-36.864c-64 0-112.128 60.0576-112.128 130.56V921.6a12.8 12.8 0 0 1-12.8 12.8H324.352a45.3632 45.3632 0 0 1-45.2608-45.2608V563.2A89.6 89.6 0 0 0 199.936 474.112l-8.192-0.512L112.64 473.6a8.2432 8.2432 0 0 1-5.3248-14.592l447.5904-376.32a12.8 12.8 0 0 1 16.4864 0z" fill="#000000" p-id="1174"></path></svg>