<?xml version="1.0" standalone="no"?><!DOCTYPE svg PUBLIC "-//W3C//DTD SVG 1.1//EN" "http://www.w3.org/Graphics/SVG/1.1/DTD/svg11.dtd"><svg t="1755348271965" class="icon" viewBox="0 0 1024 1024" version="1.1" xmlns="http://www.w3.org/2000/svg" p-id="1854" xmlns:xlink="http://www.w3.org/1999/xlink" width="48" height="48"><path d="M455.214545 55.249455a128 128 0 0 1 113.524364 0l325.445818 161.140363a128 128 0 0 1 71.214546 114.594909l0.372363 362.263273a128 128 0 0 1-71.307636 114.874182l-325.818182 160.954182a128 128 0 0 1-113.384727 0l-325.818182-161.047273A128 128 0 0 1 58.181818 693.294545V331.124364a128 128 0 0 1 71.214546-114.734546zM128.186182 327.121455l-0.186182 4.002909v362.170181c0 22.155636 12.567273 42.356364 32.395636 52.13091l316.695273 156.532363V482.210909L128.186182 327.214545z m767.255273 0.186181l-348.532364 154.810182v419.84l316.602182-156.392727a58.181818 58.181818 0 0 0 32.069818-45.661091l0.372364-6.609455-0.372364-362.216727c0-1.256727 0-2.513455-0.139636-3.723636z m-357.701819-209.454545a58.181818 58.181818 0 0 0-51.572363 0L175.197091 271.592727l332.055273 147.549091a11.636364 11.636364 0 0 0 6.330181 0.930909l3.118546-0.930909 331.822545-147.456z" fill="#000000" p-id="1855"></path></svg>